<mxfile host="app.diagrams.net" modified="2022-07-18T09:25:41.029Z" agent="5.0 (Windows NT 10.0; Win64; x64) AppleWebKit/537.36 (KHTML, like Gecko) Chrome/103.0.0.0 Safari/537.36" etag="KsYVnvwWAAq6-4SvLtQ8" version="20.1.1" type="github">
  <diagram name="Page-1" id="58cdce13-f638-feb5-8d6f-7d28b1aa9fa0">
    <mxGraphModel dx="1422" dy="914" grid="1" gridSize="10" guides="1" tooltips="1" connect="1" arrows="1" fold="1" page="1" pageScale="1" pageWidth="1100" pageHeight="850" background="none" math="0" shadow="0">
      <root>
        <mxCell id="0" />
        <mxCell id="1" parent="0" />
        <mxCell id="zyMEvpXs6-8vfvC34Oji-41" style="edgeStyle=orthogonalEdgeStyle;rounded=0;orthogonalLoop=1;jettySize=auto;html=1;exitX=0.5;exitY=1;exitDx=0;exitDy=0;entryX=0.5;entryY=0;entryDx=0;entryDy=0;" edge="1" parent="1" source="zyMEvpXs6-8vfvC34Oji-1" target="zyMEvpXs6-8vfvC34Oji-10">
          <mxGeometry relative="1" as="geometry">
            <Array as="points">
              <mxPoint x="550" y="140" />
              <mxPoint x="350" y="140" />
            </Array>
          </mxGeometry>
        </mxCell>
        <mxCell id="zyMEvpXs6-8vfvC34Oji-42" style="edgeStyle=orthogonalEdgeStyle;rounded=0;orthogonalLoop=1;jettySize=auto;html=1;exitX=0.5;exitY=1;exitDx=0;exitDy=0;entryX=0.5;entryY=0;entryDx=0;entryDy=0;" edge="1" parent="1" source="zyMEvpXs6-8vfvC34Oji-1" target="zyMEvpXs6-8vfvC34Oji-17">
          <mxGeometry relative="1" as="geometry">
            <Array as="points">
              <mxPoint x="550" y="140" />
              <mxPoint x="710" y="140" />
            </Array>
          </mxGeometry>
        </mxCell>
        <mxCell id="zyMEvpXs6-8vfvC34Oji-1" value="" style="ellipse;fillColor=#000000;strokeColor=none;" vertex="1" parent="1">
          <mxGeometry x="535" y="40" width="30" height="30" as="geometry" />
        </mxCell>
        <mxCell id="zyMEvpXs6-8vfvC34Oji-10" value="Available without photo" style="swimlane;fontStyle=4;align=center;verticalAlign=top;childLayout=stackLayout;horizontal=1;startSize=40;horizontalStack=0;resizeParent=1;resizeParentMax=0;resizeLast=0;collapsible=0;marginBottom=0;html=1;rounded=1;absoluteArcSize=1;arcSize=50;" vertex="1" parent="1">
          <mxGeometry x="280" y="198" width="140" height="98" as="geometry" />
        </mxCell>
        <mxCell id="zyMEvpXs6-8vfvC34Oji-14" value="status.isChecked()" style="fillColor=none;strokeColor=none;align=left;verticalAlign=middle;spacingLeft=5;" vertex="1" parent="zyMEvpXs6-8vfvC34Oji-10">
          <mxGeometry y="40" width="140" height="25" as="geometry" />
        </mxCell>
        <mxCell id="zyMEvpXs6-8vfvC34Oji-15" value="" style="line;strokeWidth=1;fillColor=none;align=left;verticalAlign=middle;spacingTop=-1;spacingLeft=3;spacingRight=3;rotatable=0;labelPosition=right;points=[];portConstraint=eastwest;" vertex="1" parent="zyMEvpXs6-8vfvC34Oji-10">
          <mxGeometry y="65" width="140" height="8" as="geometry" />
        </mxCell>
        <mxCell id="zyMEvpXs6-8vfvC34Oji-16" value="available" style="fillColor=none;strokeColor=none;align=left;verticalAlign=middle;spacingLeft=5;" vertex="1" parent="zyMEvpXs6-8vfvC34Oji-10">
          <mxGeometry y="73" width="140" height="25" as="geometry" />
        </mxCell>
        <mxCell id="zyMEvpXs6-8vfvC34Oji-17" value="Available with&amp;nbsp;photo" style="swimlane;fontStyle=4;align=center;verticalAlign=top;childLayout=stackLayout;horizontal=1;startSize=40;horizontalStack=0;resizeParent=1;resizeParentMax=0;resizeLast=0;collapsible=0;marginBottom=0;html=1;rounded=1;absoluteArcSize=1;arcSize=50;" vertex="1" parent="1">
          <mxGeometry x="640" y="198" width="140" height="98" as="geometry" />
        </mxCell>
        <mxCell id="zyMEvpXs6-8vfvC34Oji-18" value="status.isChecked()" style="fillColor=none;strokeColor=none;align=left;verticalAlign=middle;spacingLeft=5;" vertex="1" parent="zyMEvpXs6-8vfvC34Oji-17">
          <mxGeometry y="40" width="140" height="25" as="geometry" />
        </mxCell>
        <mxCell id="zyMEvpXs6-8vfvC34Oji-19" value="" style="line;strokeWidth=1;fillColor=none;align=left;verticalAlign=middle;spacingTop=-1;spacingLeft=3;spacingRight=3;rotatable=0;labelPosition=right;points=[];portConstraint=eastwest;" vertex="1" parent="zyMEvpXs6-8vfvC34Oji-17">
          <mxGeometry y="65" width="140" height="8" as="geometry" />
        </mxCell>
        <mxCell id="zyMEvpXs6-8vfvC34Oji-20" value="available" style="fillColor=none;strokeColor=none;align=left;verticalAlign=middle;spacingLeft=5;" vertex="1" parent="zyMEvpXs6-8vfvC34Oji-17">
          <mxGeometry y="73" width="140" height="25" as="geometry" />
        </mxCell>
        <mxCell id="zyMEvpXs6-8vfvC34Oji-49" style="edgeStyle=orthogonalEdgeStyle;rounded=0;orthogonalLoop=1;jettySize=auto;html=1;" edge="1" parent="1" source="zyMEvpXs6-8vfvC34Oji-21" target="zyMEvpXs6-8vfvC34Oji-16">
          <mxGeometry relative="1" as="geometry">
            <Array as="points">
              <mxPoint x="330" y="410" />
              <mxPoint x="330" y="410" />
            </Array>
          </mxGeometry>
        </mxCell>
        <mxCell id="zyMEvpXs6-8vfvC34Oji-21" value="Borrowed without photo" style="swimlane;fontStyle=4;align=center;verticalAlign=top;childLayout=stackLayout;horizontal=1;startSize=40;horizontalStack=0;resizeParent=1;resizeParentMax=0;resizeLast=0;collapsible=0;marginBottom=0;html=1;rounded=1;absoluteArcSize=1;arcSize=50;" vertex="1" parent="1">
          <mxGeometry x="280" y="438" width="140" height="98" as="geometry" />
        </mxCell>
        <mxCell id="zyMEvpXs6-8vfvC34Oji-22" value="!status.isChecked()" style="fillColor=none;strokeColor=none;align=left;verticalAlign=middle;spacingLeft=5;" vertex="1" parent="zyMEvpXs6-8vfvC34Oji-21">
          <mxGeometry y="40" width="140" height="25" as="geometry" />
        </mxCell>
        <mxCell id="zyMEvpXs6-8vfvC34Oji-23" value="" style="line;strokeWidth=1;fillColor=none;align=left;verticalAlign=middle;spacingTop=-1;spacingLeft=3;spacingRight=3;rotatable=0;labelPosition=right;points=[];portConstraint=eastwest;" vertex="1" parent="zyMEvpXs6-8vfvC34Oji-21">
          <mxGeometry y="65" width="140" height="8" as="geometry" />
        </mxCell>
        <mxCell id="zyMEvpXs6-8vfvC34Oji-24" value="borrowd" style="fillColor=none;strokeColor=none;align=left;verticalAlign=middle;spacingLeft=5;" vertex="1" parent="zyMEvpXs6-8vfvC34Oji-21">
          <mxGeometry y="73" width="140" height="25" as="geometry" />
        </mxCell>
        <mxCell id="zyMEvpXs6-8vfvC34Oji-52" style="edgeStyle=orthogonalEdgeStyle;rounded=0;orthogonalLoop=1;jettySize=auto;html=1;" edge="1" parent="1">
          <mxGeometry relative="1" as="geometry">
            <mxPoint x="690" y="442" as="sourcePoint" />
            <mxPoint x="690" y="294" as="targetPoint" />
            <Array as="points">
              <mxPoint x="690" y="404" />
              <mxPoint x="690" y="404" />
            </Array>
          </mxGeometry>
        </mxCell>
        <mxCell id="zyMEvpXs6-8vfvC34Oji-29" value="Borrowed with photo" style="swimlane;fontStyle=4;align=center;verticalAlign=top;childLayout=stackLayout;horizontal=1;startSize=40;horizontalStack=0;resizeParent=1;resizeParentMax=0;resizeLast=0;collapsible=0;marginBottom=0;html=1;rounded=1;absoluteArcSize=1;arcSize=50;" vertex="1" parent="1">
          <mxGeometry x="640" y="438" width="140" height="98" as="geometry" />
        </mxCell>
        <mxCell id="zyMEvpXs6-8vfvC34Oji-30" value="!status.isChecked()" style="fillColor=none;strokeColor=none;align=left;verticalAlign=middle;spacingLeft=5;" vertex="1" parent="zyMEvpXs6-8vfvC34Oji-29">
          <mxGeometry y="40" width="140" height="25" as="geometry" />
        </mxCell>
        <mxCell id="zyMEvpXs6-8vfvC34Oji-31" value="" style="line;strokeWidth=1;fillColor=none;align=left;verticalAlign=middle;spacingTop=-1;spacingLeft=3;spacingRight=3;rotatable=0;labelPosition=right;points=[];portConstraint=eastwest;" vertex="1" parent="zyMEvpXs6-8vfvC34Oji-29">
          <mxGeometry y="65" width="140" height="8" as="geometry" />
        </mxCell>
        <mxCell id="zyMEvpXs6-8vfvC34Oji-32" value="borrowed" style="fillColor=none;strokeColor=none;align=left;verticalAlign=middle;spacingLeft=5;" vertex="1" parent="zyMEvpXs6-8vfvC34Oji-29">
          <mxGeometry y="73" width="140" height="25" as="geometry" />
        </mxCell>
        <mxCell id="zyMEvpXs6-8vfvC34Oji-33" style="edgeStyle=orthogonalEdgeStyle;rounded=0;orthogonalLoop=1;jettySize=auto;html=1;exitX=1;exitY=0.5;exitDx=0;exitDy=0;entryX=0;entryY=0.5;entryDx=0;entryDy=0;" edge="1" parent="1" source="zyMEvpXs6-8vfvC34Oji-14" target="zyMEvpXs6-8vfvC34Oji-18">
          <mxGeometry relative="1" as="geometry" />
        </mxCell>
        <mxCell id="zyMEvpXs6-8vfvC34Oji-34" value="addPhoto(view)" style="text;html=1;align=center;verticalAlign=middle;resizable=0;points=[];autosize=1;strokeColor=none;fillColor=none;" vertex="1" parent="1">
          <mxGeometry x="465" y="223" width="110" height="30" as="geometry" />
        </mxCell>
        <mxCell id="zyMEvpXs6-8vfvC34Oji-35" style="edgeStyle=orthogonalEdgeStyle;rounded=0;orthogonalLoop=1;jettySize=auto;html=1;exitX=0;exitY=0;exitDx=0;exitDy=0;entryX=1;entryY=0;entryDx=0;entryDy=0;" edge="1" parent="1" source="zyMEvpXs6-8vfvC34Oji-20" target="zyMEvpXs6-8vfvC34Oji-16">
          <mxGeometry relative="1" as="geometry">
            <Array as="points">
              <mxPoint x="600" y="271" />
              <mxPoint x="600" y="271" />
            </Array>
          </mxGeometry>
        </mxCell>
        <mxCell id="zyMEvpXs6-8vfvC34Oji-36" value="deletePhoto(view)" style="text;html=1;align=center;verticalAlign=middle;resizable=0;points=[];autosize=1;strokeColor=none;fillColor=none;" vertex="1" parent="1">
          <mxGeometry x="465" y="266" width="120" height="30" as="geometry" />
        </mxCell>
        <mxCell id="zyMEvpXs6-8vfvC34Oji-37" style="edgeStyle=orthogonalEdgeStyle;rounded=0;orthogonalLoop=1;jettySize=auto;html=1;exitX=0.5;exitY=1;exitDx=0;exitDy=0;entryX=0.5;entryY=0;entryDx=0;entryDy=0;" edge="1" parent="1" source="zyMEvpXs6-8vfvC34Oji-16" target="zyMEvpXs6-8vfvC34Oji-21">
          <mxGeometry relative="1" as="geometry" />
        </mxCell>
        <mxCell id="zyMEvpXs6-8vfvC34Oji-38" value="setStatus(&quot;Borrowed&quot;)" style="text;html=1;align=center;verticalAlign=middle;resizable=0;points=[];autosize=1;strokeColor=none;fillColor=none;" vertex="1" parent="1">
          <mxGeometry x="350" y="358" width="140" height="30" as="geometry" />
        </mxCell>
        <mxCell id="zyMEvpXs6-8vfvC34Oji-39" style="edgeStyle=orthogonalEdgeStyle;rounded=0;orthogonalLoop=1;jettySize=auto;html=1;exitX=0.5;exitY=1;exitDx=0;exitDy=0;entryX=0.5;entryY=0;entryDx=0;entryDy=0;" edge="1" parent="1" source="zyMEvpXs6-8vfvC34Oji-20" target="zyMEvpXs6-8vfvC34Oji-29">
          <mxGeometry relative="1" as="geometry" />
        </mxCell>
        <mxCell id="zyMEvpXs6-8vfvC34Oji-40" value="setStatus(&quot;Borrowed&quot;)" style="text;html=1;align=center;verticalAlign=middle;resizable=0;points=[];autosize=1;strokeColor=none;fillColor=none;" vertex="1" parent="1">
          <mxGeometry x="710" y="358" width="140" height="30" as="geometry" />
        </mxCell>
        <mxCell id="zyMEvpXs6-8vfvC34Oji-43" value="AddItemActivitity" style="text;html=1;align=center;verticalAlign=middle;resizable=0;points=[];autosize=1;strokeColor=none;fillColor=none;" vertex="1" parent="1">
          <mxGeometry x="380" y="105" width="110" height="30" as="geometry" />
        </mxCell>
        <mxCell id="zyMEvpXs6-8vfvC34Oji-44" value="AddItemActivitity" style="text;html=1;align=center;verticalAlign=middle;resizable=0;points=[];autosize=1;strokeColor=none;fillColor=none;" vertex="1" parent="1">
          <mxGeometry x="585" y="105" width="110" height="30" as="geometry" />
        </mxCell>
        <mxCell id="zyMEvpXs6-8vfvC34Oji-45" value="addPhoto(view)" style="text;html=1;align=center;verticalAlign=middle;resizable=0;points=[];autosize=1;strokeColor=none;fillColor=none;" vertex="1" parent="1">
          <mxGeometry x="465" y="460" width="110" height="30" as="geometry" />
        </mxCell>
        <mxCell id="zyMEvpXs6-8vfvC34Oji-46" style="edgeStyle=orthogonalEdgeStyle;rounded=0;orthogonalLoop=1;jettySize=auto;html=1;exitX=1;exitY=0.25;exitDx=0;exitDy=0;entryX=0;entryY=0.25;entryDx=0;entryDy=0;" edge="1" parent="1" source="zyMEvpXs6-8vfvC34Oji-22" target="zyMEvpXs6-8vfvC34Oji-30">
          <mxGeometry relative="1" as="geometry" />
        </mxCell>
        <mxCell id="zyMEvpXs6-8vfvC34Oji-47" style="edgeStyle=orthogonalEdgeStyle;rounded=0;orthogonalLoop=1;jettySize=auto;html=1;exitX=0;exitY=0.25;exitDx=0;exitDy=0;entryX=1;entryY=0.25;entryDx=0;entryDy=0;" edge="1" parent="1" source="zyMEvpXs6-8vfvC34Oji-32" target="zyMEvpXs6-8vfvC34Oji-24">
          <mxGeometry relative="1" as="geometry" />
        </mxCell>
        <mxCell id="zyMEvpXs6-8vfvC34Oji-48" value="deletePhoto(view)" style="text;html=1;align=center;verticalAlign=middle;resizable=0;points=[];autosize=1;strokeColor=none;fillColor=none;" vertex="1" parent="1">
          <mxGeometry x="465" y="520" width="120" height="30" as="geometry" />
        </mxCell>
        <mxCell id="zyMEvpXs6-8vfvC34Oji-50" value="setStatus(&quot;Available&quot;)" style="text;html=1;align=center;verticalAlign=middle;resizable=0;points=[];autosize=1;strokeColor=none;fillColor=none;" vertex="1" parent="1">
          <mxGeometry x="190" y="350" width="140" height="30" as="geometry" />
        </mxCell>
        <mxCell id="zyMEvpXs6-8vfvC34Oji-53" value="setStatus(&quot;Available&quot;)" style="text;html=1;align=center;verticalAlign=middle;resizable=0;points=[];autosize=1;strokeColor=none;fillColor=none;" vertex="1" parent="1">
          <mxGeometry x="555" y="350" width="140" height="30" as="geometry" />
        </mxCell>
        <mxCell id="zyMEvpXs6-8vfvC34Oji-54" value="" style="ellipse;html=1;shape=endState;fillColor=#000000;strokeColor=#000000;" vertex="1" parent="1">
          <mxGeometry x="640" y="40" width="30" height="30" as="geometry" />
        </mxCell>
      </root>
    </mxGraphModel>
  </diagram>
</mxfile>
